# AST/ASF file generated using VICON BodyLanguage
# -----------------------------------------------
:version 1.10
:name VICON
:units
  mass 1.0
  length 0.45
  angle deg
:documentation
   .ast/.asf automatically generated from VICON data using
   VICON BodyBuilder and BodyLanguage model FoxedUp or BRILLIANT.MOD
:root
   order TX TY TZ RX RY RZ
   axis XYZ
   position 0 0 0  
   orientation 0 0 0 
:bonedata
  begin
     id 1 
     name lhipjoint
     direction 0.584852 -0.759097 0.285867 
     length 2.43633 
     axis 0 0 0  XYZ
  end
  begin
     id 2 
     name lfemur
     direction 0.34202 -0.939693 0  
     length 7.14704  
     axis 0 0 20  XYZ
    dof rx ry rz
    limits (-160.0 20.0)
           (-70.0 70.0)
           (-60.0 70.0)
  end
  begin
     id 3 
     name ltibia
     direction 0.342022 -0.939692 0   
     length 7.68483   
     axis 0 0 20   XYZ
    dof rx
    limits (-10.0 170.0)
  end
  begin
     id 4 
     name lfoot
     direction 0.0999605 -0.274639 0.956337   
     length 2.40452   
     axis -90 7.62852e-016 20   XYZ
    dof rx rz
    limits (-45.0 90.0)
           (-70.0 20.0)
  end
  begin
     id 5 
     name ltoes
     direction 1.53468e-011 -4.21881e-011 1   
     length 1.19837   
     axis -90 7.62852e-016 20   XYZ
    dof rx
    limits (-90.0 20.0)
  end
  begin
     id 6 
     name rhipjoint
     direction -0.569886 -0.769002 0.289597   
     length 2.40495  
     axis 0 0 0  XYZ 
  end
  begin
     id 7 
     name rfemur
     direction -0.34202 -0.939693 0   
     length 7.45086   
     axis 0 0 -20   XYZ
    dof rx ry rz
    limits (-160.0 20.0)
           (-70.0 70.0)
           (-70.0 60.0)
  end
  begin
     id 8 
     name rtibia
     direction -0.34202 -0.939693 0   
     length 7.76831   
     axis 0 0 -20   XYZ
    dof rx
    limits (-10.0 170.0)
 end
 begin
     id 9 
     name rfoot
     direction -0.0798572 -0.219406 0.97236   
     length 2.35911  
     axis -90 -7.62852e-016 -20   XYZ
    dof rx rz
    limits (-45.0 90.0)
           (-20.0 70.0)
  end
  begin
     id 10 
     name rtoes
     direction -1.53469e-011 -4.21728e-011 1   
     length 1.18261   
     axis -90 -7.62852e-016 -20   XYZ
    dof rx
    limits (-90.0 20.0)
  end
  begin
     id 11 
     name lowerback
     direction 0.0242088 0.999437 0.0232389   
     length 2.1561   
     axis 0 0 0   XYZ
    dof rx ry rz
    limits (-20.0 45.0)
           (-30.0 30.0)
           (-30.0 30.0)
  end
  begin
     id 12 
     name upperback
     direction -0.0356893 0.999013 -0.0264323   
     length 2.14431   
     axis 0 0 0   XYZ
    dof rx ry rz
    limits (-20.0 45.0)
           (-30.0 30.0)
           (-30.0 30.0)
  end
  begin
     id 13 
     name thorax
     direction -0.0472163 0.998194 -0.0371284   
     length 2.16169   
     axis 0 0 0   XYZ
    dof rx ry rz
    limits (-20.0 45.0)
           (-30.0 30.0)
           (-30.0 30.0)
  end
  begin
     id 14 
     name lowerneck
     direction 0.00863244 0.999921 0.00911972   
     length 1.58651   
     axis 0 0 0   XYZ
    dof rx ry rz
    limits (-20.0 45.0)
           (-30.0 30.0)
           (-30.0 30.0)
  end
  begin
     id 15 
     name upperneck
     direction 0.149523 0.979068 -0.138086   
     length 1.57486   
     axis 0 0 0   XYZ
    dof rx ry rz
    limits (-20.0 45.0)
           (-30.0 30.0)
           (-30.0 30.0)
  end
  begin
     id 16
     name head
     direction 0.0445219 0.997708 -0.0509576  
     length 1.6019  
     axis 0 0 0   XYZ
    dof rx ry rz
    limits (-20.0 45.0)
           (-30.0 30.0)
           (-30.0 30.0)
  end
  begin
     id 17 
     name lclavicle
     direction 0.911271 0.381667 -0.154644  
     length 3.80848  
     axis 0 0 0   XYZ
    dof ry rz
    limits (-20.0 10.0)
           (0.0 20.0)
  end
  begin
     id 18 
     name lhumerus
     direction 1 -4.49003e-011 2.1308e-027   
     length 5.19069   
     axis 180 -30 -90   XYZ
    dof rx ry rz
    limits (-60.0 90.0)
           (-90.0 90.0)
           (-90.0 90.0)
  end
  begin
     id 19
     name lradius
     direction 1 -4.48914e-011 4.01554e-027   
     length 3.30016   
     axis 180 -30 -90   XYZ
    dof rx
    limits (-10.0 170.0)
  end
  begin
     id 20
     name lwrist
     direction 1 -4.49003e-011 1.1934e-026   
     length 1.65008   
     axis -8.46377e-015 90 90   XYZ
    dof ry
    limits (-180.0 0.0)
 end
  begin
     id 21 
     name lhand
     direction 1 -4.49034e-011 2.38659e-026   
     length 0.707698   
     axis -1.52313e-014 90 90   XYZ
    dof rx rz
    limits (-90.0 90.0)
           (-45.0 45.0)
  end
  begin
     id 22 
     name lfingers
     direction 1 -4.48691e-011 4.77775e-026   
     length 0.570564   
     axis -3.04623e-014 90 90   XYZ
    dof rx
    limits (0.0 90.0)
  end
  begin
     id 23
     name lthumb
     direction 0.707107 -6.34832e-011 0.707107   
     length 0.819219   
     axis -90 45 -1.62303e-014   XYZ
    dof rx rz
    limits (-45.0 45.0)
           (-45.0 45.0)
  end
  begin
     id 24 
     name rclavicle
     direction -0.815579 0.573708 -0.0754329   
     length 3.54371  
     axis 0 0 0   XYZ 
    dof ry rz
    limits (-10.0 20.0)
           (-20.0 0.0)
  end
  begin
     id 25 
     name rhumerus
     direction -1 -4.48956e-011 3.05351e-028  
     length 5.23924   
     axis 180 30 90   XYZ
    dof rx ry rz
    limits (-90.0 60.0)
           (-90.0 90.0)
           (-90.0 90.0)
  end
  begin
     id 26 
     name rradius
     direction -1 -4.49013e-011 3.53849e-027   
     length 3.32953   
     axis 180 30 90   XYZ
    dof rx
    limits (-10.0 170.0)
  end
  begin
     id 27 
     name rwrist
     direction -1 -4.48901e-011 1.19374e-026   
     length 1.66477   
     axis -8.46377e-015 -90 -90   XYZ
    dof ry
    limits (-180.0 0.0)
  end
  begin
     id 28
     name rhand
     direction -1 -4.48877e-011 2.38764e-026   
     length 0.607414   
     axis -1.52313e-014 -90 -90   XYZ
    dof rx rz
    limits (-90.0 90.0)
           (-45.0 45.0)
  end
  begin
     id 29
     name rfingers
     direction -1 -4.48882e-011 4.77521e-026   
     length 0.489712   
     axis -3.04623e-014 -90 -90   XYZ
    dof rx
    limits (0.0 90.0)
  end
  begin
     id 30
     name rthumb
     direction -0.707107 -6.34974e-011 0.707107   
     length 0.703132   
     axis -90 -45 1.62303e-014   XYZ
    dof rx rz
    limits (-45.0 45.0)
           (-45.0 45.0)
  end
:hierarchy
  begin
    root lhipjoint rhipjoint lowerback
    lhipjoint lfemur
    lfemur ltibia
    ltibia lfoot
    lfoot ltoes
    rhipjoint rfemur
    rfemur rtibia
    rtibia rfoot
    rfoot rtoes
    lowerback upperback
    upperback thorax
    thorax lowerneck lclavicle rclavicle
    lowerneck upperneck
    upperneck head
    lclavicle lhumerus
    lhumerus lradius
    lradius lwrist
    lwrist lhand lthumb
    lhand lfingers
    rclavicle rhumerus
    rhumerus rradius
    rradius rwrist
    rwrist rhand rthumb
    rhand rfingers
  end

#!OML:ASF E:\VariousWalksJay\Project 1\Capture day 1\Session 1\Actor2.ASF
:FULLY-SPECIFIED
:DEGREES
184
root -4.57041 17.3464 -6.5734 1.20852 27.9692 -3.6366
lowerback -0.871372 0.773532 11.3784
upperback 4.50056 0.582361 1.6403
thorax 5.35503 0.749804 -4.60568
lowerneck -13.1368 -3.65025 -2.22885
upperneck 16.753 -5.4544 5.0633
head 7.52329 -2.25987 1.45969
rclavicle 4.03533e-014 -2.3059e-014
rhumerus -28.0228 4.96464 -84.5174
rradius 38.9746
rwrist -6.57473
rhand -11.7912 -9.0537
rfingers 7.12502
rthumb 14.2582 -38.5442
lclavicle 4.03533e-014 -2.3059e-014
lhumerus -29.6884 1.35894 82.5154
lradius 16.3714
lwrist 0.461486
lhand -8.16596 -9.03026
lfingers 7.12502
lthumb 17.7491 20.1797
rfemur -20.4709 -9.27401 25.496
rtibia 40.2837
rfoot -24.8144 -16.8296
rtoes 9.11251
lfemur -18.2127 7.74451 -8.74718
ltibia 50.5768
lfoot -17.5397 5.30226
ltoes -14.7735
185
root -4.55148 17.3494 -6.59412 1.24117 27.7156 -3.66709
lowerback -0.96243 0.783395 11.3623
upperback 4.46229 0.585891 1.62563
thorax 5.36655 0.74995 -4.61162
lowerneck -13.1448 -3.56653 -2.15659
upperneck 16.8085 -5.34216 4.9827
head 7.53409 -2.2083 1.43334
rclavicle 9.14409e-014 -3.02153e-014
rhumerus -28.0351 5.22166 -84.6551
rradius 39.4322
rwrist -6.73209
rhand -11.7844 -9.0685
rfingers 7.12502
rthumb 14.2648 -38.5586
lclavicle 9.14409e-014 -3.02153e-014
lhumerus -29.8077 2.14666 82.1338
lradius 15.8146
lwrist -0.275045
lhand -7.99651 -9.01913
lfingers 7.12502
lthumb 17.9122 20.176
rfemur -20.5231 -9.23548 25.4386
rtibia 40.1968
rfoot -24.6822 -16.6352
rtoes 9.04705
lfemur -17.6465 7.56325 -8.69851
ltibia 50.0904
lfoot -17.3141 5.74594
ltoes -14.9462
186
root -4.53204 17.3522 -6.61584 1.27212 27.454 -3.7053
lowerback -1.0459 0.792644 11.3457
upperback 4.42075 0.589941 1.612
thorax 5.37024 0.749789 -4.61628
lowerneck -13.1454 -3.48544 -2.07836
upperneck 16.8575 -5.23549 4.90751
head 7.54184 -2.15875 1.40728
rclavicle 1.92821e-014 -2.38542e-015
rhumerus -28.0558 5.45259 -84.7844
rradius 39.8698
rwrist -6.87792
rhand -11.7707 -9.08759
rfingers 7.12502
rthumb 14.278 -38.5767
lclavicle 1.92821e-014 -2.38542e-015
lhumerus -29.9363 2.90779 81.7642
lradius 15.3066
lwrist -0.996773
lhand -7.82995 -8.95959
lfingers 7.12502
lthumb 18.0725 20.2208
rfemur -20.5831 -9.18915 25.3871
rtibia 40.1138
rfoot -24.5405 -16.4466
rtoes 8.9475
lfemur -17.0707 7.36392 -8.66177
ltibia 49.5274
lfoot -17.1386 6.19256
ltoes -15.2878
187
root -4.51196 17.3545 -6.63841 1.30153 27.1832 -3.74596
lowerback -1.12178 0.798259 11.3221
upperback 4.37875 0.590487 1.60043
thorax 5.36825 0.747263 -4.61525
lowerneck -13.1433 -3.40414 -2.00008
upperneck 16.9008 -5.12936 4.83797
head 7.54762 -2.10909 1.38302
rclavicle -4.09496e-014 -2.3059e-014
rhumerus -28.0808 5.66978 -84.9061
rradius 40.2834
rwrist -7.00673
rhand -11.7556 -9.10777
rfingers 7.12502
rthumb 14.2925 -38.5959
lclavicle -4.09496e-014 -2.3059e-014
lhumerus -30.0673 3.66382 81.4027
lradius 14.84
lwrist -1.72161
lhand -7.65071 -8.88452
lfingers 7.12502
lthumb 18.2449 20.2798
rfemur -20.6496 -9.13694 25.3355
rtibia 40.0389
rfoot -24.3961 -16.2579
rtoes 8.83352
lfemur -16.4847 7.15081 -8.64278
ltibia 48.8856
lfoot -17.0526 6.6056
ltoes -15.8555
188
root -4.49129 17.3563 -6.66195 1.32985 26.9035 -3.78976
lowerback -1.18899 0.801232 11.2937
upperback 4.33556 0.589016 1.58995
thorax 5.3595 0.743137 -4.61059
lowerneck -13.1374 -3.32344 -1.9209
upperneck 16.9375 -5.02549 4.77641
head 7.55104 -2.05989 1.36102
rclavicle -4.17448e-014 -3.10104e-014
rhumerus -28.109 5.8717 -85.0208
rradius 40.6688
rwrist -7.11891
rhand -11.7404 -9.12639
rfingers 7.12502
rthumb 14.3072 -38.6135
lclavicle -4.17448e-014 -3.10104e-014
lhumerus -30.2029 4.38256 81.0642
lradius 14.4254
lwrist -2.40714
lhand -7.469 -8.80239
lfingers 7.12502
lthumb 18.4197 20.3455
rfemur -20.7265 -9.07835 25.2848
rtibia 39.9759
rfoot -24.2504 -16.0693
rtoes 8.70569
lfemur -15.8948 6.92468 -8.64138
ltibia 48.1674
lfoot -17.1011 6.94023
ltoes -16.571
189
root -4.47017 17.3573 -6.6864 1.35725 26.6186 -3.83493
lowerback -1.25087 0.799016 11.2533
upperback 4.29422 0.581622 1.58326
thorax 5.34826 0.735465 -4.59572
lowerneck -13.1309 -3.24306 -1.84304
upperneck 16.9678 -4.92255 4.72046
head 7.5526 -2.01083 1.34096
rclavicle -3.24019e-014 -3.97569e-015
rhumerus -28.1329 6.06368 -85.1248
rradius 41.023
rwrist -7.21961
rhand -11.72 -9.14566
rfingers 7.12502
rthumb 14.3268 -38.6313
lclavicle -3.24019e-014 -3.97569e-015
lhumerus -30.3408 5.05022 80.7613
lradius 14.0686
lwrist -3.02889
lhand -7.28685 -8.70641
lfingers 7.12502
lthumb 18.5949 20.4248
rfemur -20.8143 -9.01051 25.2335
rtibia 39.9282
rfoot -24.1072 -15.8871
rtoes 8.5661
lfemur -15.3069 6.6936 -8.6582
ltibia 47.38
lfoot -17.2912 7.17516
ltoes -17.4099
